{"title":"Rugby.Union.Munster.v.Ospreys.2013.03.02.pdtv.x264","uid":8215783,"size":901500883,"categoryP":"video","categoryS":"tv_shows","magnet":"?xt=urn:btih:791c6171e60a21362dbaa02b952128876deb9570&amp;dn=Rugby.Union.Munster.v.Ospreys.2013.03.02.pdtv.x264&amp;tr=udp%3A%2F%2Ftracker.openbittorrent.com%3A80&amp;tr=udp%3A%2F%2Fopen.demonii.com%3A1337&amp;tr=udp%3A%2F%2Ftracker.coppersurfer.tk%3A6969&amp;tr=udp%3A%2F%2Fexodus.desync.com%3A6969","seeders":1,"leechers":0,"uploader":"rugbybill","files":3,"time":1362336161,"description":"SPORT: Y Clwb Rygbi - Munster V Ospreys\nOn: S4C\nDate: Saturday 2nd March 2013 \nTime: 18:15 to 20:30 \n\nLive coverage from Thomond Park as the Ospreys take on Munster in the RaboDirect Pro 12. Kick-off, 6.30pm. English commentary. Read the ReadMe for more details.\n\n\nGeneral\nComplete name: 2013.03.02.Munster.v.Ospreys.pdtv.x264.mp4\nFormat : MPEG-4\nFormat profile : Base Media\nCodec ID : isom\nFile size: 860 MiB\nDuration : 1h 34mn\nOverall bit rate mode: Variable\nOverall bit rate : 1 271 Kbps\n\nVideo\nID : 1\nFormat : AVC\nFormat/Info: Advanced Video Codec\nFormat profile : &lt;a class=&quot;__cf_email__&quot; href=&quot;/cdn-cgi/l/email-protection&quot; data-cfemail=&quot;6b23020c032b2758455a&quot;&gt;[email&amp;#160;protected]&lt;/a&gt;&lt;script cf-hash='f9e31' type=&quot;text/javascript&quot;&gt;\n/* &lt;![CDATA[ */!function(){try{var t=&quot;currentScript&quot;in document?document.currentScript:function(){for(var t=document.getElementsByTagName(&quot;script&quot;),e=t.length;e--;)if(t[e].getAttribute(&quot;cf-hash&quot;))return t[e]}();if(t&amp;&amp;t.previousSibling){var e,r,n,i,c=t.previousSibling,a=c.getAttribute(&quot;data-cfemail&quot;);if(a){for(e=&quot;&quot;,r=parseInt(a.substr(0,2),16),n=2;a.length-n;n+=2)i=parseInt(a.substr(n,2),16)^r,e+=String.fromCharCode(i);e=document.createTextNode(e),c.parentNode.replaceChild(e,c)}}}catch(u){}}();/* ]]&gt; */&lt;/script&gt;\nFormat settings, CABAC : Yes\nFormat settings, ReFrames: 4 frames\nCodec ID : avc1\nCodec ID/Info: Advanced Video Coding\nDuration : 1h 34mn\nBit rate : 1 139 Kbps\nMaximum bit rate : 2 756 Kbps\nWidth: 720 pixels\nHeight : 416 pixels\nDisplay aspect ratio : 1.731\nFrame rate mode: Constant\nFrame rate : 25.000 fps\nColor space: YUV\nChroma subsampling : 4:2:0\nBit depth: 8 bits\nScan type: Progressive\nBits/(Pixel*Frame) : 0.152\nStream size: 770 MiB (90%)\nWriting library: x264 core 129 r2245 bc13772\n\nAudio\nID : 2\nFormat : AAC\nFormat/Info: Advanced Audio Codec\nFormat profile : LC\nCodec ID : 40\nDuration : 1h 34mn\nBit rate mode: Variable\nBit rate : 128 Kbps\nMaximum bit rate : 147 Kbps\nChannel(s) : 2 channels\nChannel positions: Front: L R\nSampling rate: 48.0 KHz\nCompression mode : Lossy\nDelay relative to video: 80ms\nStream size: 86.6 MiB (10%)\nLanguage : English","torrent":{"xt":"urn:btih:791c6171e60a21362dbaa02b952128876deb9570","amp;dn":"Rugby.Union.Munster.v.Ospreys.2013.03.02.pdtv.x264","amp;tr":["udp%3A%2F%2Ftracker.openbittorrent.com%3A80","udp%3A%2F%2Fopen.demonii.com%3A1337","udp%3A%2F%2Ftracker.coppersurfer.tk%3A6969","udp%3A%2F%2Fexodus.desync.com%3A6969"],"infoHash":"791c6171e60a21362dbaa02b952128876deb9570","infoHashBuffer":{"type":"Buffer","data":[121,28,97,113,230,10,33,54,45,186,160,43,149,33,40,135,109,235,149,112]},"announce":[],"urlList":[]}}